<?xml version="1.0" encoding="us-ascii" standalone="no"?><svg xmlns="http://www.w3.org/2000/svg" xmlns:xlink="http://www.w3.org/1999/xlink" contentStyleType="text/css" height="250px" preserveAspectRatio="none" style="width:262px;height:250px;background:#FFFFFF;" version="1.1" viewBox="0 0 262 250" width="262px" zoomAndPan="magnify"><defs/><g><rect fill="#FFBBBB" height="129.5313" style="stroke:#181818;stroke-width:1.0;" width="10" x="96" y="67.4297"/><rect fill="#E9967A" height="63.2656" style="stroke:#181818;stroke-width:1.0;" width="10" x="101" y="104.5625"/><rect fill="#FFFFFF" height="29.1328" style="stroke:#181818;stroke-width:1.0;" width="10" x="239" y="138.6953"/><line style="stroke:#181818;stroke-width:0.5;stroke-dasharray:5.0,5.0;" x1="28" x2="28" y1="36.2969" y2="214.9609"/><line style="stroke:#181818;stroke-width:0.5;stroke-dasharray:5.0,5.0;" x1="100.5" x2="100.5" y1="36.2969" y2="214.9609"/><line style="stroke:#181818;stroke-width:0.5;stroke-dasharray:5.0,5.0;" x1="244" x2="244" y1="36.2969" y2="214.9609"/><rect fill="#E2E2F0" height="30.2969" rx="2.5" ry="2.5" style="stroke:#181818;stroke-width:0.5;" width="46" x="5" y="5"/><text fill="#000000" font-family="sans-serif" font-size="14" lengthAdjust="spacing" textLength="32" x="12" y="24.9951">User</text><rect fill="#E2E2F0" height="30.2969" rx="2.5" ry="2.5" style="stroke:#181818;stroke-width:0.5;" width="46" x="5" y="213.9609"/><text fill="#000000" font-family="sans-serif" font-size="14" lengthAdjust="spacing" textLength="32" x="12" y="233.9561">User</text><rect fill="#E2E2F0" height="30.2969" rx="2.5" ry="2.5" style="stroke:#181818;stroke-width:0.5;" width="23" x="89.5" y="5"/><text fill="#000000" font-family="sans-serif" font-size="14" lengthAdjust="spacing" textLength="9" x="96.5" y="24.9951">A</text><rect fill="#E2E2F0" height="30.2969" rx="2.5" ry="2.5" style="stroke:#181818;stroke-width:0.5;" width="23" x="89.5" y="213.9609"/><text fill="#000000" font-family="sans-serif" font-size="14" lengthAdjust="spacing" textLength="9" x="96.5" y="233.9561">A</text><rect fill="#E2E2F0" height="30.2969" rx="2.5" ry="2.5" style="stroke:#181818;stroke-width:0.5;" width="24" x="232" y="5"/><text fill="#000000" font-family="sans-serif" font-size="14" lengthAdjust="spacing" textLength="10" x="239" y="24.9951">B</text><rect fill="#E2E2F0" height="30.2969" rx="2.5" ry="2.5" style="stroke:#181818;stroke-width:0.5;" width="24" x="232" y="213.9609"/><text fill="#000000" font-family="sans-serif" font-size="14" lengthAdjust="spacing" textLength="10" x="239" y="233.9561">B</text><rect fill="#FFBBBB" height="129.5313" style="stroke:#181818;stroke-width:1.0;" width="10" x="96" y="67.4297"/><rect fill="#E9967A" height="63.2656" style="stroke:#181818;stroke-width:1.0;" width="10" x="101" y="104.5625"/><rect fill="#FFFFFF" height="29.1328" style="stroke:#181818;stroke-width:1.0;" width="10" x="239" y="138.6953"/><polygon fill="#181818" points="84,63.4297,94,67.4297,84,71.4297,88,67.4297" style="stroke:#181818;stroke-width:1.0;"/><line style="stroke:#181818;stroke-width:1.0;" x1="28" x2="90" y1="67.4297" y2="67.4297"/><text fill="#000000" font-family="sans-serif" font-size="13" lengthAdjust="spacing" textLength="49" x="35" y="62.3638">DoWork</text><line style="stroke:#181818;stroke-width:1.0;" x1="106" x2="153" y1="91.5625" y2="91.5625"/><line style="stroke:#181818;stroke-width:1.0;" x1="153" x2="153" y1="91.5625" y2="104.5625"/><line style="stroke:#181818;stroke-width:1.0;" x1="112" x2="153" y1="104.5625" y2="104.5625"/><polygon fill="#181818" points="122,100.5625,112,104.5625,122,108.5625,118,104.5625" style="stroke:#181818;stroke-width:1.0;"/><text fill="#000000" font-family="sans-serif" font-size="13" lengthAdjust="spacing" textLength="73" x="118" y="86.4966">Internal call</text><polygon fill="#181818" points="227,134.6953,237,138.6953,227,142.6953,231,138.6953" style="stroke:#181818;stroke-width:1.0;"/><line style="stroke:#181818;stroke-width:1.0;" x1="111" x2="233" y1="138.6953" y2="138.6953"/><text fill="#000000" font-family="sans-serif" font-size="13" lengthAdjust="spacing" textLength="109" x="118" y="133.6294">&#171;createRequest&#187;</text><polygon fill="#181818" points="117,163.8281,107,167.8281,117,171.8281,113,167.8281" style="stroke:#181818;stroke-width:1.0;"/><line style="stroke:#181818;stroke-width:1.0;stroke-dasharray:2.0,2.0;" x1="111" x2="243" y1="167.8281" y2="167.8281"/><text fill="#000000" font-family="sans-serif" font-size="13" lengthAdjust="spacing" textLength="103" x="123" y="162.7622">RequestCreated</text><polygon fill="#181818" points="39,192.9609,29,196.9609,39,200.9609,35,196.9609" style="stroke:#181818;stroke-width:1.0;"/><line style="stroke:#181818;stroke-width:1.0;" x1="33" x2="100" y1="196.9609" y2="196.9609"/><text fill="#000000" font-family="sans-serif" font-size="13" lengthAdjust="spacing" textLength="34" x="45" y="191.895">Done</text><!--SRC=[LOx12i8m38RlUOg0vxt068NMCV2gYEVGvL1Msvb5dz_L5Tno28J_oyS_asZmOQQaU5zO0Ch6ng1jiS-FB1EGr_0XPRHu6WQt3e2jo2KfIwA8dc8ya3t9TAFupAdIhiMkGo-y0bT-lNbHDER_ireTDfksvkSVFCB8EsftsCrSAfUsYG_X5m00]--></g></svg>